<svg xmlns="http://www.w3.org/2000/svg" xmlns:xlink="http://www.w3.org/1999/xlink" viewBox="0 0 1200 600.00001" height="600" width="1200"><defs><marker id="i" orient="auto" overflow="visible"><path d="M-10 0l-4 4 14-4-14-4 4 4z" fill-rule="evenodd" stroke="#000" stroke-width="NaN"/></marker><marker orient="auto" overflow="visible"><path d="M10 0l4-4-14 4 14 4-4-4z" fill-rule="evenodd" stroke="#000" stroke-width="NaN"/></marker><marker id="k" orient="auto" overflow="visible"><path d="M10 0l4-4-14 4 14 4-4-4z" fill-rule="evenodd" stroke="#000" stroke-width="NaN"/></marker><marker orient="auto" overflow="visible"><path d="M-10 0l-4 4 14-4-14-4 4 4z" fill-rule="evenodd" stroke="#000" stroke-width="NaN"/></marker><marker id="j" orient="auto" overflow="visible"><path d="M10 0l4-4-14 4 14 4-4-4z" fill-rule="evenodd" stroke="#000" stroke-width="NaN"/></marker><marker orient="auto" id="h" overflow="visible"><path d="M-10 0l-4 4 14-4-14-4 4 4z" fill-rule="evenodd" stroke="#000" stroke-width="NaN"/></marker><marker id="a" orient="auto" overflow="visible"><path d="M10 0l4-4-14 4 14 4-4-4z" fill-rule="evenodd" stroke="#000" stroke-width="NaN"/></marker><marker id="c" orient="auto" overflow="visible"><path d="M10 0l4-4-14 4 14 4-4-4z" fill-rule="evenodd" stroke="#000" stroke-width="NaN"/></marker><marker id="d" orient="auto" overflow="visible"><path d="M-10 0l-4 4 14-4-14-4 4 4z" fill-rule="evenodd" stroke="#000" stroke-width="NaN"/></marker><marker id="b" orient="auto" overflow="visible"><path d="M-10 0l-4 4 14-4-14-4 4 4z" fill-rule="evenodd" stroke="#000" stroke-width="NaN"/></marker><marker id="e" orient="auto" overflow="visible"><path d="M10 0l4-4-14 4 14 4-4-4z" fill-rule="evenodd" stroke="#000" stroke-width="NaN"/></marker><marker orient="auto" overflow="visible"><path d="M-10 0l-4 4 14-4-14-4 4 4z" fill-rule="evenodd" stroke="#000" stroke-width="NaN"/></marker><marker id="g" orient="auto" overflow="visible"><path d="M-10 0l-4 4 14-4-14-4 4 4z" fill-rule="evenodd" stroke="#000" stroke-width="NaN"/></marker><marker orient="auto" overflow="visible"><path d="M10 0l4-4-14 4 14 4-4-4z" fill-rule="evenodd" stroke="#000" stroke-width="NaN"/></marker><marker id="f" orient="auto" overflow="visible"><path d="M-10 0l-4 4 14-4-14-4 4 4z" fill-rule="evenodd" stroke="#000" stroke-width="NaN"/></marker><marker orient="auto" overflow="visible"><path d="M-10.69-4.437l12.018 4.419-12.018 4.419c1.92-2.609 1.909-6.179 0-8.839z" fill-rule="evenodd" stroke-width="0.6875" stroke-linejoin="round" stroke="#000"/></marker></defs><g transform="translate(0 -452.362)"><path d="M425 717.362h105" stroke="#000" marker-start="url(#a)" fill="none"/><path d="M425 687.362h105" stroke="#000" marker-end="url(#b)" fill="none"/><path d="M670.1 717.362h105" stroke="#000" marker-start="url(#c)" fill="none"/><path d="M670.1 687.362h105" stroke="#000" marker-end="url(#d)" fill="none"/><path d="M355 862.362v-120" stroke="#000" marker-start="url(#e)" fill="none"/><path d="M180 787.362l105-85" stroke="#000" marker-end="url(#f)" fill="none"/><path d="M285 902.362l-105-85" stroke="#000" marker-end="url(#g)" fill="none"/><path d="M915 677.362l105-90" stroke="#000" stroke-dasharray="6, 6" marker-end="url(#h)" fill="none"/><path d="M1020 817.362l-105-90" stroke="#000" marker-end="url(#i)" fill="none"/><path d="M915 697.362l105-80" stroke="#000" marker-start="url(#j)" fill="none"/><path d="M1020 787.362l-105-80" stroke="#000" marker-start="url(#k)" fill="none"/><text style="line-height:125%;text-align:center" x="354.409" y="709.808" font-size="20" font-family="sans-serif" letter-spacing="0" word-spacing="0" text-anchor="middle"><tspan x="354.409" y="709.808">Controller</tspan></text><text style="line-height:125%;text-align:center" x="355.293" y="909.555" font-size="20" font-family="sans-serif" letter-spacing="0" word-spacing="0" text-anchor="middle"><tspan x="355.293" y="909.555">View</tspan></text><text style="line-height:125%;text-align:center" x="599.907" y="709.808" font-size="20" font-family="sans-serif" letter-spacing="0" word-spacing="0" text-anchor="middle"><tspan x="599.907" y="709.808">Model</tspan></text><text style="line-height:125%;text-align:center" x="845.361" y="707.753" font-size="20" font-family="sans-serif" letter-spacing="0" word-spacing="0" text-anchor="middle"><tspan x="845.361" y="707.753">AppService</tspan></text><text style="line-height:125%;text-align:center" x="1089.961" y="609.613" font-size="20" font-family="sans-serif" letter-spacing="0" word-spacing="0" text-anchor="middle"><tspan x="1089.961" y="609.613">Ceneo</tspan></text><text style="line-height:125%;text-align:center" x="1089.512" y="809.808" font-size="20" font-family="sans-serif" letter-spacing="0" word-spacing="0" text-anchor="middle"><tspan x="1089.512" y="809.808">SQLite</tspan></text><a transform="translate(-39.217 -144.839)" id="l"><path style="isolation:auto;mix-blend-mode:normal;solid-color:#000000;solid-opacity:1" color="#000" overflow="visible" stroke="#000" stroke-width=".452" enable-background="accumulate" fill="none" d="M324.442 807.427h139.548v79.548h-139.548z"/></a><text style="line-height:125%;text-align:center" x="109.102" y="809.481" font-size="20" font-family="sans-serif" letter-spacing="0" word-spacing="0" text-anchor="middle"><tspan x="109.102" y="809.481">User</tspan></text><use height="100%" width="100%" transform="translate(-245 100)" id="m" xlink:href="#l"/><use height="100%" width="100%" transform="translate(245 100)" id="n" xlink:href="#m"/><use height="100%" width="100%" transform="translate(245 -200)" id="o" xlink:href="#n"/><use height="100%" width="100%" transform="translate(245)" id="p" xlink:href="#o"/><use height="100%" width="100%" transform="translate(245 -100)" id="q" xlink:href="#p"/><use transform="translate(0 200)" height="100%" width="100%" xlink:href="#q"/><path style="isolation:auto;mix-blend-mode:normal;solid-color:#000000;solid-opacity:1" color="#000" overflow="visible" stroke="#000" stroke-width=".473" stroke-dasharray="5.6818871, 5.6818871" enable-background="accumulate" fill="none" d="M245.237 522.599h464.527v459.527h-464.527z"/><path style="isolation:auto;mix-blend-mode:normal;solid-color:#000000;solid-opacity:1" color="#000" overflow="visible" stroke="#000" stroke-width=".439" stroke-dasharray="5.26469635, 5.26469635" enable-background="accumulate" fill="none" d="M735.219 522.582h219.561v259.561h-219.561z"/><text y="557.333" x="323.623" style="line-height:125%;text-align:center" font-size="25" font-family="sans-serif" letter-spacing="0" word-spacing="0" text-anchor="middle"><tspan style="-inkscape-font-specification:'sans-serif Italic'" y="557.333" x="323.623" font-style="italic" font-family="sans-serif">Javascript</tspan></text><text y="559.787" x="773.633" style="line-height:125%;text-align:center" font-size="25" font-family="sans-serif" letter-spacing="0" word-spacing="0" text-anchor="middle"><tspan style="-inkscape-font-specification:'sans-serif Italic'" y="559.787" x="773.633" font-style="italic" font-family="sans-serif">PHP</tspan></text><text transform="rotate(-40.798)" y="1103.139" x="321.9" style="line-height:125%;text-align:center" font-size="25" font-family="sans-serif" letter-spacing="0" word-spacing="0" text-anchor="middle"><tspan y="1103.139" x="321.9" font-size="12.5">file_get_contents</tspan></text><text transform="rotate(38.025)" y="-14.041" x="1229.688" style="line-height:125%;text-align:center" font-size="25" font-family="sans-serif" letter-spacing="0" word-spacing="0" text-anchor="middle"><tspan y="-14.041" x="1229.688" font-size="15">PDO</tspan></text><text y="679.616" x="722.764" style="line-height:125%;text-align:center" font-size="25" font-family="sans-serif" letter-spacing="0" word-spacing="0" text-anchor="middle"><tspan y="679.616" x="722.764" font-size="15">AJAX</tspan></text></g></svg>